<svg id="Capa_1" data-name="Capa 1" xmlns="http://www.w3.org/2000/svg" viewBox="0 0 719.887 119.545"><defs><style>.cls-1{fill:currentColor;}</style></defs><title>logo-b</title><polygon class="cls-1" points="74.266 98.889 0 79.213 0 99.882 74.266 119.545 148.542 99.882 148.542 79.213 74.266 98.889"/><polygon class="cls-1" points="0 0 0 20.662 74.266 40.335 94.307 35.02 94.307 14.368 74.266 19.68 0 0"/><polygon class="cls-1" points="0 60.087 74.266 79.768 94.307 74.46 94.307 53.794 74.266 59.1 0 39.43 0 60.087"/><path class="cls-1" d="M687.639,54.291l19,25.892h13.253L700,53.323,718.655,27.7H705.577ZM676.157,80.183h11.215V27.7H676.157V80.183ZM622.69,27.7H611.382V80.183h10.773V45.28l24.4,34.9h10.584V27.7H646.378V63.048Zm-30.228,0H581.249V80.176h11.213V27.7Zm-57.78,52.486h31.8v-9.8H545.891V27.7H534.682V80.183ZM476.794,50.051L464.516,27.7H452.231l18.828,32.961V80.183H482.18V60.658l19-32.961H488.8ZM425.62,37.492H441.8V27.7H398.414v9.795h16.172V80.183H425.62V37.492ZM384.087,27.7h-11.21V80.176h11.21V27.7ZM309.334,61.811c0,14.752,10.418,19.25,22.355,19.25,6.543,0,15.822-1.145,20.5-2.558V27.7h-11.21V70.908a52.373,52.373,0,0,1-9.289.8c-6.806,0-11.138-2.829-11.138-12.195V27.7H309.334V61.811Zm-26.777-7.873c0,10.331-6.8,17.053-15.816,17.053s-15.828-6.722-15.828-17.053,6.808-17.061,15.828-17.061,15.816,6.718,15.816,17.061M275.583,92.73h13.16L276.989,79.207C287.067,75.5,294.04,66.129,294.04,53.938c0-16-12.1-27.123-27.3-27.123s-27.3,11.122-27.3,27.123c0,15.462,11.395,26.413,25.887,27.037ZM203.99,70.38V58.622h20.595V49H203.99V37.492h22.446V27.7H192.954V80.183H226.97v-9.8H203.99Z" transform="translate(0 0)"/></svg>